<?xml version="1.0" standalone="no"?>
<!DOCTYPE svg PUBLIC "-//W3C//DTD SVG 20010904//EN"
 "http://www.w3.org/TR/2001/REC-SVG-20010904/DTD/svg10.dtd">
<svg version="1.0" xmlns="http://www.w3.org/2000/svg"
 width="665.000000pt" height="152.000000pt" viewBox="0 0 665.000000 152.000000"
 preserveAspectRatio="xMidYMid meet">

<g transform="translate(0.000000,152.000000) scale(0.100000,-0.100000)"
fill="#000000" stroke="none">
<path d="M379 1485 c-14 -8 -34 -25 -43 -39 -18 -28 -21 -97 -6 -126 17 -32
74 -60 121 -60 98 0 159 -63 159 -164 0 -109 57 -176 149 -176 94 0 143 58
146 173 3 105 48 153 157 167 73 9 99 21 122 61 48 82 -24 193 -114 175 -69
-13 -110 -66 -110 -143 0 -43 -28 -96 -60 -113 -41 -22 -137 -31 -207 -20 -93
15 -120 42 -135 136 -13 82 -31 112 -75 130 -41 17 -71 17 -104 -1z"/>
<path d="M52 1162 c-16 -15 -33 -38 -37 -51 -11 -35 3 -86 32 -115 27 -28 37
-31 116 -41 76 -10 114 -51 127 -138 11 -69 2 -167 -19 -206 -19 -35 -66 -61
-110 -61 -78 0 -130 -37 -146 -103 -17 -65 44 -137 114 -137 72 0 121 53 121
130 0 51 19 98 54 129 21 20 40 25 108 31 90 7 110 15 147 54 19 20 26 40 29
86 4 54 1 64 -23 96 -35 46 -79 64 -152 64 -41 0 -68 6 -91 20 -40 24 -71 89
-72 145 0 48 -31 102 -66 115 -49 19 -100 12 -132 -18z"/>
<path d="M1322 1174 c-31 -21 -52 -66 -52 -110 0 -51 -36 -122 -74 -145 -21
-13 -50 -19 -88 -19 -67 0 -103 -12 -140 -47 -61 -59 -58 -155 8 -213 34 -30
91 -47 120 -36 8 3 35 1 60 -5 60 -15 101 -63 109 -126 12 -98 19 -117 54
-140 50 -34 102 -31 145 8 90 79 26 209 -102 209 -50 0 -95 26 -116 68 -21 41
-28 131 -17 203 14 88 51 124 140 134 76 9 125 45 135 100 9 45 -17 101 -55
120 -37 20 -99 19 -127 -1z"/>
<path d="M369 1141 c-21 -22 -29 -39 -29 -66 0 -51 44 -95 95 -95 51 0 95 44
95 95 0 27 -8 44 -29 66 -41 40 -91 40 -132 0z"/>
<path d="M1021 1144 c-25 -21 -31 -33 -31 -66 0 -84 94 -128 157 -74 23 20 28
32 28 71 0 39 -5 51 -28 71 -38 32 -86 32 -126 -2z"/>
<path d="M1866 1132 c-2 -4 80 -181 183 -392 127 -263 192 -386 204 -388 14
-3 32 26 81 129 l64 132 62 -132 c44 -91 68 -131 80 -131 12 0 68 105 203 384
103 211 187 389 187 396 0 7 -21 10 -62 8 l-62 -3 -133 -285 -132 -285 -41 89
-41 88 91 190 c49 105 90 194 90 199 0 6 -27 9 -62 7 l-62 -3 -57 -123 c-32
-68 -59 -125 -61 -127 -2 -2 -30 55 -62 126 l-58 129 -59 0 c-44 0 -59 -4 -59
-14 0 -8 38 -94 85 -192 47 -99 85 -186 84 -194 0 -8 -17 -51 -37 -94 l-38
-80 -134 287 -134 287 -57 0 c-32 0 -60 -3 -63 -8z"/>
<path d="M3474 1094 c3 -26 6 -204 6 -395 l0 -349 35 0 c20 0 42 7 53 18 16
16 19 16 52 0 21 -11 57 -18 92 -18 137 0 228 96 228 241 0 114 -40 188 -123
228 -52 25 -141 28 -194 6 -19 -8 -37 -15 -39 -15 -2 0 -5 73 -6 163 l-3 162
-54 3 -54 3 7 -47z m318 -381 c27 -24 48 -74 48 -115 -1 -50 -34 -114 -69
-132 -38 -20 -111 -21 -156 -2 l-35 15 0 110 c0 108 1 111 26 127 54 36 145
34 186 -3z"/>
<path d="M4042 1088 l3 -53 123 -3 122 -3 0 -320 c0 -202 4 -327 10 -340 8
-14 21 -19 55 -19 l45 0 0 340 0 339 128 3 127 3 0 50 0 50 -308 3 -308 2 3
-52z"/>
<path d="M6179 1136 c-2 -2 -2 -179 1 -393 l5 -388 50 0 50 0 3 164 c3 186 4
189 78 217 59 23 121 14 151 -21 22 -25 23 -35 23 -176 0 -85 5 -159 10 -170
8 -14 21 -19 56 -19 l46 0 -4 183 c-3 180 -4 184 -30 224 -54 82 -185 109
-282 58 l-46 -24 0 162 c0 114 -4 167 -12 175 -11 11 -89 17 -99 8z"/>
<path d="M725 841 c-36 -16 -60 -51 -60 -91 0 -44 18 -68 63 -87 91 -38 171
88 98 156 -26 24 -72 34 -101 22z"/>
<path d="M3005 811 c-85 -49 -132 -140 -122 -236 14 -135 111 -225 242 -224
70 0 121 16 170 53 38 29 42 42 21 71 -13 18 -15 17 -60 -5 -59 -28 -123 -36
-169 -20 -41 13 -87 62 -87 91 0 18 9 19 168 19 117 0 172 4 180 12 26 26 9
117 -33 178 -63 91 -209 119 -310 61z m168 -75 c37 -15 62 -41 71 -73 l7 -23
-129 0 c-125 0 -130 1 -125 20 6 24 50 69 78 81 30 12 62 11 98 -5z"/>
<path d="M4771 814 c-91 -46 -136 -129 -129 -239 5 -85 44 -148 118 -192 47
-29 63 -33 121 -33 78 0 125 17 178 65 107 97 105 268 -5 365 -52 45 -93 60
-167 60 -48 0 -76 -6 -116 -26z m196 -94 c40 -24 66 -73 66 -125 0 -85 -60
-145 -144 -145 -80 0 -149 67 -149 145 0 110 133 183 227 125z"/>
<path d="M5236 825 c-9 -25 -7 -448 3 -463 5 -9 24 -12 52 -10 l44 3 3 162 2
161 37 32 c35 31 39 32 102 27 l66 -7 23 35 c12 19 22 37 22 40 0 3 -16 13
-35 21 -51 21 -115 18 -167 -9 -45 -23 -45 -23 -54 -2 -12 27 -88 35 -98 10z"/>
<path d="M5792 819 c-122 -61 -174 -204 -118 -325 61 -130 211 -182 337 -116
60 31 69 50 42 86 -22 31 -36 32 -72 5 -57 -42 -157 -21 -205 44 -29 40 -28
122 3 165 46 65 138 84 207 41 l36 -22 24 29 c13 16 23 35 24 41 0 7 -24 26
-52 43 -68 38 -159 42 -226 9z"/>
<path d="M716 580 c-68 -21 -106 -83 -106 -172 0 -44 -6 -72 -19 -94 -23 -38
-94 -74 -145 -74 -74 0 -126 -46 -126 -113 0 -77 40 -116 116 -117 47 0 55 3
83 35 24 27 31 45 31 76 0 49 20 97 52 127 47 42 219 52 290 16 40 -21 68 -66
68 -112 0 -90 45 -142 122 -142 43 0 54 4 84 34 26 26 34 42 34 70 0 74 -50
126 -122 126 -54 0 -102 18 -132 49 -25 26 -30 41 -37 117 -8 91 -21 120 -70
155 -30 22 -85 31 -123 19z"/>
<path d="M366 489 c-66 -78 11 -187 105 -149 54 23 75 81 47 133 -18 34 -40
46 -85 47 -34 0 -46 -5 -67 -31z"/>
<path d="M1016 494 c-38 -38 -36 -95 3 -135 62 -61 161 -14 161 77 0 15 -12
38 -29 55 -40 39 -97 41 -135 3z"/>
</g>
</svg>
